<?xml version="1.0" encoding="UTF-8"?><svg xmlns="http://www.w3.org/2000/svg" xmlns:xlink="http://www.w3.org/1999/xlink" data-name="Layer 1" height="223.7" preserveAspectRatio="xMidYMid meet" version="1.0" viewBox="12.7 136.9 467.9 223.7" width="467.9" zoomAndPan="magnify"><defs><linearGradient gradientUnits="userSpaceOnUse" id="a" x1="22.18" x2="477.82" xlink:actuate="onLoad" xlink:show="other" xlink:type="simple" xmlns:xlink="http://www.w3.org/1999/xlink" y1="247.82" y2="247.82"><stop offset="0" stop-color="#c1272d"/><stop offset="1" stop-color="#f0f"/></linearGradient></defs><path d="M384.13,141.36a86,86,0,0,1-12.08,171.15h1.58c-34.32,2.35-65.13-25.56-87-50.92q-4.59-5.34-9-10.78c-6.74-8.83-46-56.12-46-56.12a248.5,248.5,0,0,0-20.85-20.84c-14.8-13-31.64-23.21-50.52-29.05A101.48,101.48,0,0,0,138,140.48,107.51,107.51,0,0,0,58.68,328.39c26.31,23.16,67.71,32.19,101.54,22.55,37.09-10.58,65.66-39.18,90.2-67.53,19.89,22.83,41.37,44.3,66.23,57.77,16.42,8.91,34.33,14.32,54.23,14.32h.23c.66,0,1.31,0,2,0a107.52,107.52,0,0,0,11.05-214.11ZM155.68,306.94a64.72,64.72,0,1,1-26-124A55,55,0,0,1,144,184.53a64.44,64.44,0,0,1,24.57,11.37c18.24,12.31,35.54,32.1,53.44,53.62C200.85,274.71,179.78,297,155.68,306.94ZM384.13,141.36a86,86,0,0,0-10.47-.83Q379,140.7,384.13,141.36Z" fill="url(#a)"/><g id="change1_1"><path d="M222.49,249.94c-13.77,16.52-28.36,32.21-45.8,44.95a111.12,111.12,0,0,1-21,12.05,64.72,64.72,0,1,1-26-124A55.11,55.11,0,0,1,144,184.53a64.54,64.54,0,0,1,10.24,3.24,78.78,78.78,0,0,0-34.09-7.31A86,86,0,0,0,77,340.89c11.29,6.56,24.12,10.46,37,12.46a110.67,110.67,0,0,0,39.59-.79c2.22-.46,4.43-1,6.61-1.63,37.09-10.56,65.66-39.17,90.2-67.52,19.89,22.83,41.37,44.3,66.23,57.77,16.42,8.91,34.33,14.32,54.23,14.32h.23c.66,0,1.31,0,2,0a107.51,107.51,0,0,0,.58-214.94h-.83c-.84,0-1.68,0-2.53,0a107.29,107.29,0,0,0-36.8,6.46,1,1,0,0,1-.16.06,119.59,119.59,0,0,0-16.86,7.9C276.41,177.42,251.22,215.49,222.49,249.94Zm151.15,62.58c-34.33,2.34-65.14-25.56-87-50.93q-4.59-5.32-9-10.77c16.85-20.38,33.2-39.3,50.53-51.89,7.19-5.23,14-9.94,22.6-12.62,28.56-8.87,60.33,3.13,75.47,29.05,19.21,32.9,3.52,75.52-30.4,91.32A62,62,0,0,1,373.64,312.52Z" fill="#00f"/></g><g id="change2_1"><path d="M250.42,283.41c19.89,22.83,41.37,44.3,66.23,57.77,16.42,8.91,34.33,14.32,54.23,14.32h.23c.66,0,1.31,0,2,0a107.52,107.52,0,0,0,11.05-214.11,86,86,0,0,1-12.08,171.15h1.58c-34.32,2.35-65.13-25.56-87-50.92q-4.59-5.34-9-10.78Zm133.71-142a86,86,0,0,0-10.47-.83Q379,140.7,384.13,141.36Z" fill="#f0f"/></g></svg>